<?xml version="1.0" encoding="utf-8"?>
<!-- Generator: Adobe Illustrator 23.0.1, SVG Export Plug-In . SVG Version: 6.00 Build 0)  -->
<svg version="1.1" id="Layer_1" xmlns="http://www.w3.org/2000/svg" xmlns:xlink="http://www.w3.org/1999/xlink" x="0px" y="0px"
	 viewBox="0 0 829 132" style="enable-background:new 0 0 829 132;" xml:space="preserve">
<style type="text/css">
	.st0{fill:#FF0000;}
</style>
<path class="st0" d="M25,50.5c5.3-1.6,1.5-6,3.4-10.5c3.7-3.1,8.6-7.2,13.1-11c7.1,0,13.3,0,19.7,0c4.4,5.2,5.2,11.3,3.9,18.2
	c-6.3,2.4-11.4-1-17.2-4.4c-5.2,4.4-10.1,9.3-12.6,16.6c2,5.1,3.9,10.2,5.8,15.2c3.4,0,6,0,10,0c0.6-1.4,1.7-3.9,2.1-4.8
	c5.5,0,8.5,0,12.2,0c0.7,8.5-4.1,13.8-7.6,16.9c-9,4.6-15.9,4.6-24.8,0.1c-1.4-1.1-4.7-3.8-8.1-6.5C25,70.4,25,60.5,25,50.5z"/>
<path class="st0" d="M674.6,39.9c5.9,1.4,10,2.4,14.4,3.5c3.1,9.2,6.4,19.1,9.9,29.5c9.5-11,10.7-27.8,26-33.2
	c2.6,1.3,4.8,2.5,7.4,3.8c0.1,0.3,0.7,1,0.7,1.8c0.2,8.4-2.6,15.4-7.2,22.7c-3.8,6.1-7.9,12.6-9.4,20.4c-0.9,4.6-5.2,8.6-8.2,13.1
	c-4.8,0-9.6,0-14.6,0c-10.6-7.3-12.9-20.4-19.9-31c-0.2-8.9-2.4-16.6-6.7-22.5c-3.5,2.2-7,4.5-10.8,6.9c-9.2-5.9-18.1,5.3-29.5-0.9
	c2.5,5.1,3.6,7.5,4.8,10c2.7,0,5.4,0,7.9,0c5.2,3.2,5,7.9,3.9,13.3c-3,0-6.1,0-9.9,0c-1.3,3.1-2.7,6.2-4.1,9.7
	c2.2,0.7,3.5,1.5,4.5,1.3c2.4-0.6,4.6-2.4,7-2.5c6.4-0.3,13.1-1.1,19.1,3.6c0,3.7,0,7.6,0,11.7c-13,1.3-26,2.7-37.1,3.8
	c-3.2-1.6-4.7-2.2-6.2-3.1c-1.5-0.9-2.8-1.9-4-2.7c-0.5-1.2-1.1-2-1-2.7c1.4-17.9-3.4-36.2,3-53.6c10.6-1.1,20.6-2.6,30.5-3
	c6.8-0.3,13.8-1.6,20.6,2.3C668,43.5,672.9,44.1,674.6,39.9z"/>
<path class="st0" d="M566.7,88.3c3,0,5.6,0,8.5,0c1.2-4.4,3-8.8,3.6-13.3c0.6-4.9,0.2-9.9,0.1-14.8c-0.2-6.7,3.4-12,5.3-17.5
	c5.1,0,9,0,13.3,0c0,15,0,29.7,0,43.8c-2.7,6.3-6,11.8-12.8,13.6c-2.9,0.8-6.7,2.6-8.6,1.4c-6.3-4-12.9-1.7-19.9-2.7
	c-7-2.6-12-7.5-13.9-15.9c-0.8-3.5-3.9-6.5-6.6-10.7c1.6-8.9-2.9-19.8,2.8-29.7c5.6,0,10.4,0,15.5,0c1.1,9.5,2.1,18.9,3.4,28.3
	c0.5,3.7,1.4,7.5,3,10.8C561.8,84.4,564.7,86.3,566.7,88.3z"/>
<path class="st0" d="M364.4,37c3.2,7.6,14.7,3.7,16.5,12.4c1.3,3.5,2.8,6.5,3.4,9.8c0.6,3,0.1,6.2,0.1,10.1
	c-5.4,7.2-11.1,14.8-15.7,20.9c-12.7,1.5-23.5,2.8-33.8,4c-9.2-8.8-19-16.5-14.3-32.3c5.4-7.5,6.3-20.8,21.6-24.9
	C347.9,37,356,37,364.4,37z M347.7,45.1c-2.8,5.9-4.6,11-7.4,15.6c-2.6,4.3-1.7,7.5-0.2,12.1c2.4,6.9,8,7.9,12.7,10.6
	c8.5-7.2,15-14.6,12.7-25.1c-2.6-5-4.7-9.1-6.7-13.1C355.1,45.1,351.5,45.1,347.7,45.1z"/>
<path class="st0" d="M803,95.4c-2.3,2.3-4.2,4.2-6.2,6.2c-3.9,0-7.8,0-12.2,0c-2.2-4.1-4.4-8.1-7-12.8c-9.9-5.3-16.4-5.8-26.4,9.9
	c-3.5,0-7.5,0-12,0c-0.2-0.5-0.7-1.7-0.9-2.9c-0.7-5.8,2.1-10.9,4.5-15.7c4.1-8.2,9.3-22,9.3-29.1c2.6-1.6,5.4-3.7,8.5-5
	c2.6-1.2,5.6-1.6,9.5-2.6c1,0.4,3.1,1.3,4.8,2C784.3,62.2,793.5,78.6,803,95.4z M767,66.4c-0.6,0.6-1.2,1.2-1.8,1.8
	c0.2,1.2,0.5,2.4,0.8,4.2c1.9-0.4,3.4-0.6,6.7-1.3C770,68.8,768.5,67.6,767,66.4z"/>
<path class="st0" d="M313.4,37.6c-1,3.7-1.8,6.5-2.7,9.5c-8.6,3.6-8.6,3.6-17.6,1.1c-1.1,6.7-2.6,13.4-3.2,20.2
	c-0.6,7.1-0.1,14.4-0.1,20.3c-1.7,3.3-2.9,5.6-4,7.7c-8.1,2.3-9.7-8.4-18-6.4c1.2-13.3-1.2-24.6,1.8-36.1
	c-5.5-1.1-12.1-2.5-19.9-4.1c-0.2-3.4-0.3-7.6-0.6-12.9c5.4-0.9,10.3-2,15.3-2.5c10.9-1.1,21.8-1.9,32.6-2.8
	C303.6,31.1,309.1,33,313.4,37.6z"/>
<path class="st0" d="M468.8,78.4c-1.7-16.1,0.9-30.6,14.4-41.3c8.7-1.2,17.7-2.4,26-3.5c5.7,5.2,10,9.9,10.5,16.7
	c-1.4,5-4.9,6.1-10,5.6c-1.3-1.6-3-3.7-4.3-5.3c-5.3,0-9.8,0-14.3,0c-2.2,2.2-4.4,4.4-6.7,6.7c0,5.3,0,10.7,0,16.4
	c2.1,1.9,4.5,4,7.4,6.5c3.6,0,8,0,13.8,0c1.8-2.3,4.2-5.4,5.9-7.5c4,1.2,6.8,2.1,10.3,3.1c3,13.7-7.6,18.2-16.8,22.7
	c-6.7-1-13.1-1.9-20-2.9C480.4,90.2,470.5,88.7,468.8,78.4z"/>
<path class="st0" d="M113.8,34.9c3.7,5,7.2,9.8,5.6,15.7c-1.2,4.7-4.1,9-7,15.2c3.2,2.4,6.6,4.1,8.6,6.8c1.8,2.5,2.1,6.1,3.3,9.8
	c-1.5,2.4-3.6,5.7-5.5,8.7c-3.2,0-5.9,0-9.1,0c-2.4-5.5-4.8-11.2-8.5-19.6c-1-0.9-4.2-4-7.6-7.2c-1.9,2-4,4.3-6.8,7.2
	c0,4,0,8.8,0,13.9c-4.4,0-8.3,0-13.3,0c1.1-15.8-2.3-31.6,3.5-47.7c2.4-0.9,6.2-1.4,8.4-3.5c4.3-4.2,10.7-4,13.5-2.1
	C103.8,35.4,108.5,33.1,113.8,34.9z M86.6,49.8c1.9,3.6,3.4,6.4,5,9.5c4.7-2.1,8.9-3.9,13-5.9c0.9-0.5,1.2-2.1,2.3-4
	c-1.8-1.3-3.6-2.6-5.8-4.1c-2.8,0-6.3,0-9.8,0C89.8,46.5,88.6,47.8,86.6,49.8z"/>
<path class="st0" d="M200.8,73.8c-1.8,5.1,3.3,12.3-4.5,17c-3.2,0-7.1,0-10.9,0c-3.6-8.4-0.8-16.8-1.3-25.1
	c-0.5-9.9,4.6-18.6,3-27.4c1.8-1.8,2.8-2.8,3.5-3.5c7.9-1.1,15.7-1.8,23.2-3.4c8-1.7,13,6.7,21.6,5.5c0.1,2.2-0.6,5.1,0.5,6.2
	c6.2,6.5,0.7,12.5-1.5,17.5c-2.3,5.3-8.3,8.9-14.9,8.6C213.3,69.1,207.5,70.6,200.8,73.8z M223.3,50.7c-5.4-6.6-10.8-11.4-19.7-10.9
	c0,6.6,0,12.3,0,18.7C211.5,59.3,217.8,57.2,223.3,50.7z"/>
<path class="st0" d="M175.9,34.3c2.6,14.3-8.4,19.9-15.8,28.6c0,2.8-0.9,6.7,0.3,9.8c1.3,3.4-5.2,5.3-0.7,9c0.9,0.8-1.8,5.9-2.8,9.1
	c-4.2,0-8.1,0-11.9,0c-0.9-2.1-1.7-4-2.6-6.3c3.4-6.3,0.8-13.8,1.8-21.2c-4.4-5.7-8.9-11.5-14.2-18.4c1-3.7,2.4-8.5,3.9-13.7
	c9.4,2,12.9,9,16.4,16.1c4.5,2.1,7.4-0.5,10.1-3.7c2.4-2.9,4.7-6,7.3-9.3C169.6,34.3,172.3,34.3,175.9,34.3z"/>
</svg>
