<?xml version="1.0" encoding="utf-8"?>
<!-- Generator: Adobe Illustrator 23.0.1, SVG Export Plug-In . SVG Version: 6.00 Build 0)  -->
<svg version="1.1" id="Layer_1" xmlns="http://www.w3.org/2000/svg" xmlns:xlink="http://www.w3.org/1999/xlink" x="0px" y="0px"
	 viewBox="0 0 267.3 555.3" style="enable-background:new 0 0 267.3 555.3;" xml:space="preserve">
<style type="text/css">
	.st0{fill:#330000;stroke:#000000;stroke-width:7;stroke-miterlimit:10;}
	.st1{fill:none;stroke:#000000;stroke-width:7;stroke-linecap:round;stroke-linejoin:round;}
	.st2{fill:#0066CC;stroke:#000000;stroke-width:7;stroke-miterlimit:10;}
</style>
<path class="st0" d="M231.8,263.2c-10.8,0.8-22.5,3.6-32.6,4.7c-13.9,1.6-24.9,0-45.8,3c-19.8,2.8-48.4,9.8-117.4-4.6
	c11.4,91,22.7,182,34.1,273c42.4,1.2,84.8,1.2,127.2,0C208.7,447.3,220.3,355.3,231.8,263.2z"/>
<path class="st1" d="M22.3,250.7c12.5,100,25,199.9,37.5,299.9c49.2,1.6,98.4,1.6,147.6,0c12.5-100,25-199.9,37.5-299.9"/>
<polyline class="st1" points="134.4,493.2 196.4,6 176.9,3.5 114.9,490.7 "/>
<line class="st1" x1="114.9" y1="490.7" x2="134.4" y2="493.2"/>
<path class="st2" d="M161.7,278.8c0.2-1.3,0.3-2.7,0.5-4c1.5-11.7,3-23.3,4.5-35c-2.5,19.5-8,23.7-13.5,28c-5.5,4.3-11,8.5-13.5,28
	c-1.7,13-3.3,26-5,39c2.5-19.5,8-23.7,13.5-28C153.7,302.6,159.2,298.3,161.7,278.8z"/>
<path class="st2" d="M141.8,434.7c0.2-1.3,0.3-2.7,0.5-4c1.5-11.7,3-23.3,4.5-35c-2.5,19.5-8,23.7-13.5,28c-5.5,4.3-11,8.5-13.5,28
	c-1.7,13-3.3,26-5,39c2.5-19.5,8-23.7,13.5-28C133.9,458.5,139.4,454.2,141.8,434.7z"/>
<path class="st2" d="M151.8,356.8c0.2-1.3,0.3-2.7,0.5-4c1.5-11.7,3-23.3,4.5-35c-2.5,19.5-8,23.7-13.5,28c-5.5,4.3-11,8.5-13.5,28
	c-1.7,13-3.3,26-5,39c2.5-19.5,8-23.7,13.5-28C143.8,380.5,149.3,376.3,151.8,356.8z"/>
<path class="st2" d="M171.6,200.9c0.2-1.3,0.3-2.7,0.5-4c1.5-11.7,3-23.3,4.5-35c-2.5,19.5-8,23.7-13.5,28c-5.5,4.3-11,8.5-13.5,28
	c-1.7,13-3.3,26-5,39c2.5-19.5,8-23.7,13.5-28C163.6,224.6,169.1,220.4,171.6,200.9z"/>
<path class="st2" d="M181.5,122.9c0.2-1.3,0.3-2.7,0.5-4c1.5-11.7,3-23.3,4.5-35c-2.5,19.5-8,23.7-13.5,28c-5.5,4.3-11,8.5-13.5,28
	c-1.7,13-3.3,26-5,39c2.5-19.5,8-23.7,13.5-28C173.6,146.7,179,142.4,181.5,122.9z"/>
<path class="st2" d="M191.5,45c0.2-1.3,0.3-2.7,0.5-4c1.5-11.7,3-23.3,4.5-35c-2.5,19.5-8,23.7-13.5,28c-5.5,4.3-11,8.5-13.5,28
	c-1.7,13-3.3,26-5,39c2.5-19.5,8-23.7,13.5-28C183.5,68.7,189,64.4,191.5,45z"/>
<path class="st1" d="M22.3,250.7c74.2,3.6,148.4,3.6,222.6,0c6.3-0.3,12.6-0.6,18.8-1c-2.1-6.3-4.2-12.5-6.3-18.8
	c-82.6-4.5-165.2-4.5-247.8,0c-2.1,6.3-4.2,12.5-6.3,18.8C9.8,250.1,16.1,250.4,22.3,250.7z"/>
</svg>
